# xmcd CD database file generated by Grip 3.0.7
# 
# Track frame offsets:
#       150
#       13780
#       24677
#       41385
#       51712
#       72570
#       88717
#       100475
#       114340
#       125307
#       141670
#       159467
#       178012
#       189610
#       205322
#       214252
#       229782
#       250407
#       263280
# 
# Disc length: 3845 seconds
# 
# Revision: 1
# Processed by: cddbd v1.4PL0 Copyright (c) Steve Scherf et al.
# Submitted via: Grip 3.0.7
# 
DISCID=1d0f0313
DTITLE=KVET - Various - Genuine Austin Christmas
DYEAR=2003
DGENRE=Country
TTITLE0=Christmas in Texas - Ray Benson, Kevin Fowler
TTITLE1=God Rest Ye Merry Gentlemen - Owen Temple
TTITLE2=Snow Angels in the Sand Doug Moreland
TTITLE3=Christmas Wouldn't Be Christmas Without You - Jason Allen
TTITLE4=Blue Christmas - Wade Bowen
TTITLE5=The First Noel - Honeybrowne
TTITLE6=Please Come Home for Christmas - Randy Rogers
TTITLE7=What Child is This - Lost Wolf
TTITLE8=Jingle Bells - Kyle Sisters
TTITLE9=Away in a Manger - Radney Foster
TTITLE10=O Holy Night - Pauline Reese
TTITLE11=Little Drummer Boy - Cory Morrow
TTITLE12=Lighten Up It's Christmas - Geezinslaws
TTITLE13=Santa Baby - Kelly Willis
TTITLE14=Nothin' Like the Jingle of a Bell - Nancy Turco
TTITLE15=Go Tell it on the Mountain - Roger Creager
TTITLE16=Silent Night - Ricky Calmbach
TTITLE17=Feliz Navidad - Rick Trevino
TTITLE18=12 Days of Christmas - Various Artists
EXTD=
EXTT0=
EXTT1=
EXTT2=
EXTT3=
EXTT4=
EXTT5=
EXTT6=
EXTT7=
EXTT8=
EXTT9=
EXTT10=
EXTT11=
EXTT12=
EXTT13=
EXTT14=
EXTT15=
EXTT16=
EXTT17=
EXTT18=
PLAYORDER=
